<svg viewBox = "0 0 257 383" width="257" height="383" xmlns="http://www.w3.org/2000/svg"><g transform="matrix(1 0 0 1 128.5 191.5)"  ><g style=""   ><g transform="matrix(1 0 0 1 -126 -189)"  ><circle style="stroke: none; stroke-width: 1; stroke-dasharray: none; stroke-linecap: butt; stroke-dashoffset: 0; stroke-linejoin: miter; stroke-miterlimit: 4; fill: rgb(134,124,225); fill-rule: nonzero; opacity: 1;"  cx="0" cy="0" r="2.5" /></g><g transform="matrix(1 0 0 1 -126 -147)"  ><circle style="stroke: none; stroke-width: 1; stroke-dasharray: none; stroke-linecap: butt; stroke-dashoffset: 0; stroke-linejoin: miter; stroke-miterlimit: 4; fill: rgb(134,124,225); fill-rule: nonzero; opacity: 1;"  cx="0" cy="0" r="2.5" /></g><g transform="matrix(1 0 0 1 -126 -105)"  ><circle style="stroke: none; stroke-width: 1; stroke-dasharray: none; stroke-linecap: butt; stroke-dashoffset: 0; stroke-linejoin: miter; stroke-miterlimit: 4; fill: rgb(134,124,225); fill-rule: nonzero; opacity: 1;"  cx="0" cy="0" r="2.5" /></g><g transform="matrix(1 0 0 1 -126 -63)"  ><circle style="stroke: none; stroke-width: 1; stroke-dasharray: none; stroke-linecap: butt; stroke-dashoffset: 0; stroke-linejoin: miter; stroke-miterlimit: 4; fill: rgb(134,124,225); fill-rule: nonzero; opacity: 1;"  cx="0" cy="0" r="2.5" /></g><g transform="matrix(1 0 0 1 -126 -21)"  ><circle style="stroke: none; stroke-width: 1; stroke-dasharray: none; stroke-linecap: butt; stroke-dashoffset: 0; stroke-linejoin: miter; stroke-miterlimit: 4; fill: rgb(134,124,225); fill-rule: nonzero; opacity: 1;"  cx="0" cy="0" r="2.5" /></g><g transform="matrix(1 0 0 1 -126 21)"  ><circle style="stroke: none; stroke-width: 1; stroke-dasharray: none; stroke-linecap: butt; stroke-dashoffset: 0; stroke-linejoin: miter; stroke-miterlimit: 4; fill: rgb(134,124,225); fill-rule: nonzero; opacity: 1;"  cx="0" cy="0" r="2.5" /></g><g transform="matrix(1 0 0 1 -126 63)"  ><circle style="stroke: none; stroke-width: 1; stroke-dasharray: none; stroke-linecap: butt; stroke-dashoffset: 0; stroke-linejoin: miter; stroke-miterlimit: 4; fill: rgb(134,124,225); fill-rule: nonzero; opacity: 1;"  cx="0" cy="0" r="2.5" /></g><g transform="matrix(1 0 0 1 -126 105)"  ><circle style="stroke: none; stroke-width: 1; stroke-dasharray: none; stroke-linecap: butt; stroke-dashoffset: 0; stroke-linejoin: miter; stroke-miterlimit: 4; fill: rgb(134,124,225); fill-rule: nonzero; opacity: 1;"  cx="0" cy="0" r="2.5" /></g><g transform="matrix(1 0 0 1 -126 147)"  ><circle style="stroke: none; stroke-width: 1; stroke-dasharray: none; stroke-linecap: butt; stroke-dashoffset: 0; stroke-linejoin: miter; stroke-miterlimit: 4; fill: rgb(134,124,225); fill-rule: nonzero; opacity: 1;"  cx="0" cy="0" r="2.5" /></g><g transform="matrix(1 0 0 1 -126 189)"  ><circle style="stroke: none; stroke-width: 1; stroke-dasharray: none; stroke-linecap: butt; stroke-dashoffset: 0; stroke-linejoin: miter; stroke-miterlimit: 4; fill: rgb(134,124,225); fill-rule: nonzero; opacity: 1;"  cx="0" cy="0" r="2.5" /></g><g transform="matrix(1 0 0 1 -84 -189)"  ><circle style="stroke: none; stroke-width: 1; stroke-dasharray: none; stroke-linecap: butt; stroke-dashoffset: 0; stroke-linejoin: miter; stroke-miterlimit: 4; fill: rgb(134,124,225); fill-rule: nonzero; opacity: 1;"  cx="0" cy="0" r="2.5" /></g><g transform="matrix(1 0 0 1 -84 -147)"  ><circle style="stroke: none; stroke-width: 1; stroke-dasharray: none; stroke-linecap: butt; stroke-dashoffset: 0; stroke-linejoin: miter; stroke-miterlimit: 4; fill: rgb(134,124,225); fill-rule: nonzero; opacity: 1;"  cx="0" cy="0" r="2.5" /></g><g transform="matrix(1 0 0 1 -84 -105)"  ><circle style="stroke: none; stroke-width: 1; stroke-dasharray: none; stroke-linecap: butt; stroke-dashoffset: 0; stroke-linejoin: miter; stroke-miterlimit: 4; fill: rgb(134,124,225); fill-rule: nonzero; opacity: 1;"  cx="0" cy="0" r="2.5" /></g><g transform="matrix(1 0 0 1 -84 -63)"  ><circle style="stroke: none; stroke-width: 1; stroke-dasharray: none; stroke-linecap: butt; stroke-dashoffset: 0; stroke-linejoin: miter; stroke-miterlimit: 4; fill: rgb(134,124,225); fill-rule: nonzero; opacity: 1;"  cx="0" cy="0" r="2.5" /></g><g transform="matrix(1 0 0 1 -84 -21)"  ><circle style="stroke: none; stroke-width: 1; stroke-dasharray: none; stroke-linecap: butt; stroke-dashoffset: 0; stroke-linejoin: miter; stroke-miterlimit: 4; fill: rgb(134,124,225); fill-rule: nonzero; opacity: 1;"  cx="0" cy="0" r="2.5" /></g><g transform="matrix(1 0 0 1 -84 21)"  ><circle style="stroke: none; stroke-width: 1; stroke-dasharray: none; stroke-linecap: butt; stroke-dashoffset: 0; stroke-linejoin: miter; stroke-miterlimit: 4; fill: rgb(134,124,225); fill-rule: nonzero; opacity: 1;"  cx="0" cy="0" r="2.5" /></g><g transform="matrix(1 0 0 1 -84 63)"  ><circle style="stroke: none; stroke-width: 1; stroke-dasharray: none; stroke-linecap: butt; stroke-dashoffset: 0; stroke-linejoin: miter; stroke-miterlimit: 4; fill: rgb(134,124,225); fill-rule: nonzero; opacity: 1;"  cx="0" cy="0" r="2.5" /></g><g transform="matrix(1 0 0 1 -84 105)"  ><circle style="stroke: none; stroke-width: 1; stroke-dasharray: none; stroke-linecap: butt; stroke-dashoffset: 0; stroke-linejoin: miter; stroke-miterlimit: 4; fill: rgb(134,124,225); fill-rule: nonzero; opacity: 1;"  cx="0" cy="0" r="2.5" /></g><g transform="matrix(1 0 0 1 -84 147)"  ><circle style="stroke: none; stroke-width: 1; stroke-dasharray: none; stroke-linecap: butt; stroke-dashoffset: 0; stroke-linejoin: miter; stroke-miterlimit: 4; fill: rgb(134,124,225); fill-rule: nonzero; opacity: 1;"  cx="0" cy="0" r="2.5" /></g><g transform="matrix(1 0 0 1 -84 189)"  ><circle style="stroke: none; stroke-width: 1; stroke-dasharray: none; stroke-linecap: butt; stroke-dashoffset: 0; stroke-linejoin: miter; stroke-miterlimit: 4; fill: rgb(134,124,225); fill-rule: nonzero; opacity: 1;"  cx="0" cy="0" r="2.5" /></g><g transform="matrix(1 0 0 1 -42 -189)"  ><circle style="stroke: none; stroke-width: 1; stroke-dasharray: none; stroke-linecap: butt; stroke-dashoffset: 0; stroke-linejoin: miter; stroke-miterlimit: 4; fill: rgb(134,124,225); fill-rule: nonzero; opacity: 1;"  cx="0" cy="0" r="2.5" /></g><g transform="matrix(1 0 0 1 -42 -147)"  ><circle style="stroke: none; stroke-width: 1; stroke-dasharray: none; stroke-linecap: butt; stroke-dashoffset: 0; stroke-linejoin: miter; stroke-miterlimit: 4; fill: rgb(134,124,225); fill-rule: nonzero; opacity: 1;"  cx="0" cy="0" r="2.5" /></g><g transform="matrix(1 0 0 1 -42 -105)"  ><circle style="stroke: none; stroke-width: 1; stroke-dasharray: none; stroke-linecap: butt; stroke-dashoffset: 0; stroke-linejoin: miter; stroke-miterlimit: 4; fill: rgb(134,124,225); fill-rule: nonzero; opacity: 1;"  cx="0" cy="0" r="2.5" /></g><g transform="matrix(1 0 0 1 -42 -63)"  ><circle style="stroke: none; stroke-width: 1; stroke-dasharray: none; stroke-linecap: butt; stroke-dashoffset: 0; stroke-linejoin: miter; stroke-miterlimit: 4; fill: rgb(134,124,225); fill-rule: nonzero; opacity: 1;"  cx="0" cy="0" r="2.5" /></g><g transform="matrix(1 0 0 1 -42 -21)"  ><circle style="stroke: none; stroke-width: 1; stroke-dasharray: none; stroke-linecap: butt; stroke-dashoffset: 0; stroke-linejoin: miter; stroke-miterlimit: 4; fill: rgb(134,124,225); fill-rule: nonzero; opacity: 1;"  cx="0" cy="0" r="2.5" /></g><g transform="matrix(1 0 0 1 -42 21)"  ><circle style="stroke: none; stroke-width: 1; stroke-dasharray: none; stroke-linecap: butt; stroke-dashoffset: 0; stroke-linejoin: miter; stroke-miterlimit: 4; fill: rgb(134,124,225); fill-rule: nonzero; opacity: 1;"  cx="0" cy="0" r="2.5" /></g><g transform="matrix(1 0 0 1 -42 63)"  ><circle style="stroke: none; stroke-width: 1; stroke-dasharray: none; stroke-linecap: butt; stroke-dashoffset: 0; stroke-linejoin: miter; stroke-miterlimit: 4; fill: rgb(134,124,225); fill-rule: nonzero; opacity: 1;"  cx="0" cy="0" r="2.5" /></g><g transform="matrix(1 0 0 1 -42 105)"  ><circle style="stroke: none; stroke-width: 1; stroke-dasharray: none; stroke-linecap: butt; stroke-dashoffset: 0; stroke-linejoin: miter; stroke-miterlimit: 4; fill: rgb(134,124,225); fill-rule: nonzero; opacity: 1;"  cx="0" cy="0" r="2.5" /></g><g transform="matrix(1 0 0 1 -42 147)"  ><circle style="stroke: none; stroke-width: 1; stroke-dasharray: none; stroke-linecap: butt; stroke-dashoffset: 0; stroke-linejoin: miter; stroke-miterlimit: 4; fill: rgb(134,124,225); fill-rule: nonzero; opacity: 1;"  cx="0" cy="0" r="2.5" /></g><g transform="matrix(1 0 0 1 -42 189)"  ><circle style="stroke: none; stroke-width: 1; stroke-dasharray: none; stroke-linecap: butt; stroke-dashoffset: 0; stroke-linejoin: miter; stroke-miterlimit: 4; fill: rgb(134,124,225); fill-rule: nonzero; opacity: 1;"  cx="0" cy="0" r="2.5" /></g><g transform="matrix(1 0 0 1 0 -189)"  ><circle style="stroke: none; stroke-width: 1; stroke-dasharray: none; stroke-linecap: butt; stroke-dashoffset: 0; stroke-linejoin: miter; stroke-miterlimit: 4; fill: rgb(134,124,225); fill-rule: nonzero; opacity: 1;"  cx="0" cy="0" r="2.5" /></g><g transform="matrix(1 0 0 1 0 -147)"  ><circle style="stroke: none; stroke-width: 1; stroke-dasharray: none; stroke-linecap: butt; stroke-dashoffset: 0; stroke-linejoin: miter; stroke-miterlimit: 4; fill: rgb(134,124,225); fill-rule: nonzero; opacity: 1;"  cx="0" cy="0" r="2.5" /></g><g transform="matrix(1 0 0 1 0 -105)"  ><circle style="stroke: none; stroke-width: 1; stroke-dasharray: none; stroke-linecap: butt; stroke-dashoffset: 0; stroke-linejoin: miter; stroke-miterlimit: 4; fill: rgb(134,124,225); fill-rule: nonzero; opacity: 1;"  cx="0" cy="0" r="2.5" /></g><g transform="matrix(1 0 0 1 0 -63)"  ><circle style="stroke: none; stroke-width: 1; stroke-dasharray: none; stroke-linecap: butt; stroke-dashoffset: 0; stroke-linejoin: miter; stroke-miterlimit: 4; fill: rgb(134,124,225); fill-rule: nonzero; opacity: 1;"  cx="0" cy="0" r="2.5" /></g><g transform="matrix(1 0 0 1 0 -21)"  ><circle style="stroke: none; stroke-width: 1; stroke-dasharray: none; stroke-linecap: butt; stroke-dashoffset: 0; stroke-linejoin: miter; stroke-miterlimit: 4; fill: rgb(134,124,225); fill-rule: nonzero; opacity: 1;"  cx="0" cy="0" r="2.5" /></g><g transform="matrix(1 0 0 1 0 21)"  ><circle style="stroke: none; stroke-width: 1; stroke-dasharray: none; stroke-linecap: butt; stroke-dashoffset: 0; stroke-linejoin: miter; stroke-miterlimit: 4; fill: rgb(134,124,225); fill-rule: nonzero; opacity: 1;"  cx="0" cy="0" r="2.5" /></g><g transform="matrix(1 0 0 1 0 63)"  ><circle style="stroke: none; stroke-width: 1; stroke-dasharray: none; stroke-linecap: butt; stroke-dashoffset: 0; stroke-linejoin: miter; stroke-miterlimit: 4; fill: rgb(134,124,225); fill-rule: nonzero; opacity: 1;"  cx="0" cy="0" r="2.5" /></g><g transform="matrix(1 0 0 1 0 105)"  ><circle style="stroke: none; stroke-width: 1; stroke-dasharray: none; stroke-linecap: butt; stroke-dashoffset: 0; stroke-linejoin: miter; stroke-miterlimit: 4; fill: rgb(134,124,225); fill-rule: nonzero; opacity: 1;"  cx="0" cy="0" r="2.5" /></g><g transform="matrix(1 0 0 1 0 147)"  ><circle style="stroke: none; stroke-width: 1; stroke-dasharray: none; stroke-linecap: butt; stroke-dashoffset: 0; stroke-linejoin: miter; stroke-miterlimit: 4; fill: rgb(134,124,225); fill-rule: nonzero; opacity: 1;"  cx="0" cy="0" r="2.5" /></g><g transform="matrix(1 0 0 1 0 189)"  ><circle style="stroke: none; stroke-width: 1; stroke-dasharray: none; stroke-linecap: butt; stroke-dashoffset: 0; stroke-linejoin: miter; stroke-miterlimit: 4; fill: rgb(134,124,225); fill-rule: nonzero; opacity: 1;"  cx="0" cy="0" r="2.5" /></g><g transform="matrix(1 0 0 1 42 -189)"  ><circle style="stroke: none; stroke-width: 1; stroke-dasharray: none; stroke-linecap: butt; stroke-dashoffset: 0; stroke-linejoin: miter; stroke-miterlimit: 4; fill: rgb(134,124,225); fill-rule: nonzero; opacity: 1;"  cx="0" cy="0" r="2.5" /></g><g transform="matrix(1 0 0 1 42 -147)"  ><circle style="stroke: none; stroke-width: 1; stroke-dasharray: none; stroke-linecap: butt; stroke-dashoffset: 0; stroke-linejoin: miter; stroke-miterlimit: 4; fill: rgb(134,124,225); fill-rule: nonzero; opacity: 1;"  cx="0" cy="0" r="2.5" /></g><g transform="matrix(1 0 0 1 42 -105)"  ><circle style="stroke: none; stroke-width: 1; stroke-dasharray: none; stroke-linecap: butt; stroke-dashoffset: 0; stroke-linejoin: miter; stroke-miterlimit: 4; fill: rgb(134,124,225); fill-rule: nonzero; opacity: 1;"  cx="0" cy="0" r="2.5" /></g><g transform="matrix(1 0 0 1 42 -63)"  ><circle style="stroke: none; stroke-width: 1; stroke-dasharray: none; stroke-linecap: butt; stroke-dashoffset: 0; stroke-linejoin: miter; stroke-miterlimit: 4; fill: rgb(134,124,225); fill-rule: nonzero; opacity: 1;"  cx="0" cy="0" r="2.5" /></g><g transform="matrix(1 0 0 1 42 -21)"  ><circle style="stroke: none; stroke-width: 1; stroke-dasharray: none; stroke-linecap: butt; stroke-dashoffset: 0; stroke-linejoin: miter; stroke-miterlimit: 4; fill: rgb(134,124,225); fill-rule: nonzero; opacity: 1;"  cx="0" cy="0" r="2.5" /></g><g transform="matrix(1 0 0 1 42 21)"  ><circle style="stroke: none; stroke-width: 1; stroke-dasharray: none; stroke-linecap: butt; stroke-dashoffset: 0; stroke-linejoin: miter; stroke-miterlimit: 4; fill: rgb(134,124,225); fill-rule: nonzero; opacity: 1;"  cx="0" cy="0" r="2.5" /></g><g transform="matrix(1 0 0 1 42 63)"  ><circle style="stroke: none; stroke-width: 1; stroke-dasharray: none; stroke-linecap: butt; stroke-dashoffset: 0; stroke-linejoin: miter; stroke-miterlimit: 4; fill: rgb(134,124,225); fill-rule: nonzero; opacity: 1;"  cx="0" cy="0" r="2.5" /></g><g transform="matrix(1 0 0 1 42 105)"  ><circle style="stroke: none; stroke-width: 1; stroke-dasharray: none; stroke-linecap: butt; stroke-dashoffset: 0; stroke-linejoin: miter; stroke-miterlimit: 4; fill: rgb(134,124,225); fill-rule: nonzero; opacity: 1;"  cx="0" cy="0" r="2.5" /></g><g transform="matrix(1 0 0 1 42 147)"  ><circle style="stroke: none; stroke-width: 1; stroke-dasharray: none; stroke-linecap: butt; stroke-dashoffset: 0; stroke-linejoin: miter; stroke-miterlimit: 4; fill: rgb(134,124,225); fill-rule: nonzero; opacity: 1;"  cx="0" cy="0" r="2.5" /></g><g transform="matrix(1 0 0 1 42 189)"  ><circle style="stroke: none; stroke-width: 1; stroke-dasharray: none; stroke-linecap: butt; stroke-dashoffset: 0; stroke-linejoin: miter; stroke-miterlimit: 4; fill: rgb(134,124,225); fill-rule: nonzero; opacity: 1;"  cx="0" cy="0" r="2.5" /></g><g transform="matrix(1 0 0 1 84 -189)"  ><circle style="stroke: none; stroke-width: 1; stroke-dasharray: none; stroke-linecap: butt; stroke-dashoffset: 0; stroke-linejoin: miter; stroke-miterlimit: 4; fill: rgb(134,124,225); fill-rule: nonzero; opacity: 1;"  cx="0" cy="0" r="2.5" /></g><g transform="matrix(1 0 0 1 84 -147)"  ><circle style="stroke: none; stroke-width: 1; stroke-dasharray: none; stroke-linecap: butt; stroke-dashoffset: 0; stroke-linejoin: miter; stroke-miterlimit: 4; fill: rgb(134,124,225); fill-rule: nonzero; opacity: 1;"  cx="0" cy="0" r="2.5" /></g><g transform="matrix(1 0 0 1 84 -105)"  ><circle style="stroke: none; stroke-width: 1; stroke-dasharray: none; stroke-linecap: butt; stroke-dashoffset: 0; stroke-linejoin: miter; stroke-miterlimit: 4; fill: rgb(134,124,225); fill-rule: nonzero; opacity: 1;"  cx="0" cy="0" r="2.5" /></g><g transform="matrix(1 0 0 1 84 -63)"  ><circle style="stroke: none; stroke-width: 1; stroke-dasharray: none; stroke-linecap: butt; stroke-dashoffset: 0; stroke-linejoin: miter; stroke-miterlimit: 4; fill: rgb(134,124,225); fill-rule: nonzero; opacity: 1;"  cx="0" cy="0" r="2.5" /></g><g transform="matrix(1 0 0 1 84 -21)"  ><circle style="stroke: none; stroke-width: 1; stroke-dasharray: none; stroke-linecap: butt; stroke-dashoffset: 0; stroke-linejoin: miter; stroke-miterlimit: 4; fill: rgb(134,124,225); fill-rule: nonzero; opacity: 1;"  cx="0" cy="0" r="2.5" /></g><g transform="matrix(1 0 0 1 84 21)"  ><circle style="stroke: none; stroke-width: 1; stroke-dasharray: none; stroke-linecap: butt; stroke-dashoffset: 0; stroke-linejoin: miter; stroke-miterlimit: 4; fill: rgb(134,124,225); fill-rule: nonzero; opacity: 1;"  cx="0" cy="0" r="2.5" /></g><g transform="matrix(1 0 0 1 84 63)"  ><circle style="stroke: none; stroke-width: 1; stroke-dasharray: none; stroke-linecap: butt; stroke-dashoffset: 0; stroke-linejoin: miter; stroke-miterlimit: 4; fill: rgb(134,124,225); fill-rule: nonzero; opacity: 1;"  cx="0" cy="0" r="2.5" /></g><g transform="matrix(1 0 0 1 84 105)"  ><circle style="stroke: none; stroke-width: 1; stroke-dasharray: none; stroke-linecap: butt; stroke-dashoffset: 0; stroke-linejoin: miter; stroke-miterlimit: 4; fill: rgb(134,124,225); fill-rule: nonzero; opacity: 1;"  cx="0" cy="0" r="2.5" /></g><g transform="matrix(1 0 0 1 84 147)"  ><circle style="stroke: none; stroke-width: 1; stroke-dasharray: none; stroke-linecap: butt; stroke-dashoffset: 0; stroke-linejoin: miter; stroke-miterlimit: 4; fill: rgb(134,124,225); fill-rule: nonzero; opacity: 1;"  cx="0" cy="0" r="2.5" /></g><g transform="matrix(1 0 0 1 84 189)"  ><circle style="stroke: none; stroke-width: 1; stroke-dasharray: none; stroke-linecap: butt; stroke-dashoffset: 0; stroke-linejoin: miter; stroke-miterlimit: 4; fill: rgb(134,124,225); fill-rule: nonzero; opacity: 1;"  cx="0" cy="0" r="2.5" /></g><g transform="matrix(1 0 0 1 126 -189)"  ><circle style="stroke: none; stroke-width: 1; stroke-dasharray: none; stroke-linecap: butt; stroke-dashoffset: 0; stroke-linejoin: miter; stroke-miterlimit: 4; fill: rgb(134,124,225); fill-rule: nonzero; opacity: 1;"  cx="0" cy="0" r="2.5" /></g><g transform="matrix(1 0 0 1 126 -147)"  ><circle style="stroke: none; stroke-width: 1; stroke-dasharray: none; stroke-linecap: butt; stroke-dashoffset: 0; stroke-linejoin: miter; stroke-miterlimit: 4; fill: rgb(134,124,225); fill-rule: nonzero; opacity: 1;"  cx="0" cy="0" r="2.5" /></g><g transform="matrix(1 0 0 1 126 -105)"  ><circle style="stroke: none; stroke-width: 1; stroke-dasharray: none; stroke-linecap: butt; stroke-dashoffset: 0; stroke-linejoin: miter; stroke-miterlimit: 4; fill: rgb(134,124,225); fill-rule: nonzero; opacity: 1;"  cx="0" cy="0" r="2.5" /></g><g transform="matrix(1 0 0 1 126 -63)"  ><circle style="stroke: none; stroke-width: 1; stroke-dasharray: none; stroke-linecap: butt; stroke-dashoffset: 0; stroke-linejoin: miter; stroke-miterlimit: 4; fill: rgb(134,124,225); fill-rule: nonzero; opacity: 1;"  cx="0" cy="0" r="2.5" /></g><g transform="matrix(1 0 0 1 126 -21)"  ><circle style="stroke: none; stroke-width: 1; stroke-dasharray: none; stroke-linecap: butt; stroke-dashoffset: 0; stroke-linejoin: miter; stroke-miterlimit: 4; fill: rgb(134,124,225); fill-rule: nonzero; opacity: 1;"  cx="0" cy="0" r="2.5" /></g><g transform="matrix(1 0 0 1 126 21)"  ><circle style="stroke: none; stroke-width: 1; stroke-dasharray: none; stroke-linecap: butt; stroke-dashoffset: 0; stroke-linejoin: miter; stroke-miterlimit: 4; fill: rgb(134,124,225); fill-rule: nonzero; opacity: 1;"  cx="0" cy="0" r="2.5" /></g><g transform="matrix(1 0 0 1 126 63)"  ><circle style="stroke: none; stroke-width: 1; stroke-dasharray: none; stroke-linecap: butt; stroke-dashoffset: 0; stroke-linejoin: miter; stroke-miterlimit: 4; fill: rgb(134,124,225); fill-rule: nonzero; opacity: 1;"  cx="0" cy="0" r="2.5" /></g><g transform="matrix(1 0 0 1 126 105)"  ><circle style="stroke: none; stroke-width: 1; stroke-dasharray: none; stroke-linecap: butt; stroke-dashoffset: 0; stroke-linejoin: miter; stroke-miterlimit: 4; fill: rgb(134,124,225); fill-rule: nonzero; opacity: 1;"  cx="0" cy="0" r="2.5" /></g><g transform="matrix(1 0 0 1 126 147)"  ><circle style="stroke: none; stroke-width: 1; stroke-dasharray: none; stroke-linecap: butt; stroke-dashoffset: 0; stroke-linejoin: miter; stroke-miterlimit: 4; fill: rgb(134,124,225); fill-rule: nonzero; opacity: 1;"  cx="0" cy="0" r="2.5" /></g><g transform="matrix(1 0 0 1 126 189)"  ><circle style="stroke: none; stroke-width: 1; stroke-dasharray: none; stroke-linecap: butt; stroke-dashoffset: 0; stroke-linejoin: miter; stroke-miterlimit: 4; fill: rgb(134,124,225); fill-rule: nonzero; opacity: 1;"  cx="0" cy="0" r="2.5" /></g></g></g></svg>