<?xml version="1.0" standalone="no"?>

<svg version="1.0" xmlns="http://www.w3.org/2000/svg"
 width="698.000000pt" height="486.000000pt" viewBox="0 0 698.000000 486.000000"
 preserveAspectRatio="xMidYMid meet">

<g transform="translate(0.000000,486.000000) scale(0.100000,-0.100000)"
fill="#6355D8FF" stroke="none">
<path d="M2305 4503 c-432 -26 -857 -196 -1190 -475 -570 -477 -841 -1246
-694 -1972 86 -426 332 -855 649 -1131 258 -224 578 -392 885 -463 207 -49
507 -66 705 -41 264 32 536 119 742 235 54 31 66 34 83 23 69 -43 250 -124
365 -163 434 -146 924 -141 1355 15 259 94 589 307 766 495 361 384 556 848
576 1364 17 459 -127 920 -401 1287 -328 439 -803 725 -1346 809 -127 20 -412
22 -553 5 -217 -27 -484 -110 -672 -210 l-110 -58 -125 63 c-153 77 -355 147
-516 179 -112 23 -355 47 -434 43 -19 -1 -57 -3 -85 -5z m330 -173 c191 -22
364 -68 558 -150 42 -17 86 -39 98 -49 20 -16 19 -17 -48 -66 -98 -72 -288
-264 -370 -375 -212 -287 -350 -634 -393 -995 -16 -128 -14 -380 5 -516 67
-506 340 -991 738 -1311 l88 -71 -43 -25 c-128 -73 -360 -146 -568 -178 -145
-23 -423 -23 -555 0 -443 76 -771 248 -1077 564 -245 254 -409 565 -486 921
-25 117 -27 143 -27 371 0 256 4 291 52 485 66 265 220 556 408 766 309 347
728 570 1180 628 99 12 334 13 440 1z m2065 -1 c813 -83 1481 -686 1645 -1486
61 -294 52 -589 -25 -881 -190 -711 -801 -1258 -1526 -1367 -261 -38 -505 -27
-757 37 -167 42 -431 149 -411 167 5 4 36 28 69 53 212 161 418 413 549 676
100 199 153 360 192 582 35 199 36 470 4 670 -60 368 -196 676 -430 970 -80
100 -227 245 -324 318 l-69 52 104 49 c164 77 383 139 565 160 103 12 299 12
414 0z m-968 -517 c136 -131 252 -281 331 -425 49 -90 100 -197 94 -197 -1 0
-177 175 -390 388 l-389 389 43 31 42 31 75 -52 c42 -29 129 -103 194 -165z
m554 -1108 c15 -120 19 -298 6 -292 -4 2 -286 282 -625 624 l-617 621 92 97
91 98 520 -520 519 -519 14 -109z m-672 127 l669 -669 -21 -93 c-11 -52 -28
-120 -37 -153 l-17 -59 -703 703 -704 704 21 40 c28 57 112 196 118 196 3 0
306 -301 674 -669z m-174 -464 l694 -698 -31 -62 c-17 -34 -48 -90 -70 -125
l-40 -62 -672 680 -673 680 16 73 c28 124 59 218 70 215 7 -2 324 -317 706
-701z m-181 -463 c342 -345 621 -630 621 -635 0 -5 -39 -49 -87 -99 l-88 -91
-528 528 -528 529 -9 64 c-16 112 -24 330 -12 330 5 0 289 -282 631 -626z
m276 -968 c-65 -53 -65 -53 -147 7 -163 120 -339 306 -453 478 -61 93 -175
309 -175 334 0 5 181 -171 403 -393 l402 -402 -30 -24z"/>
</g>
</svg>
