<svg viewBox = "0 0 481 481" width="481" height="481" xmlns="http://www.w3.org/2000/svg"><g transform="matrix(1 0 0 1 240.5 240.5)"  ><path style="stroke: none; stroke-width: 1; stroke-dasharray: none; stroke-linecap: butt; stroke-dashoffset: 0; stroke-linejoin: miter; stroke-miterlimit: 4; fill: rgb(236,184,43); fill-rule: evenodd; opacity: 1;"  transform=" translate(-240.5, -240.5)" d="M 240.5 465 C 364.488 465 465 364.488 465 240.5 C 465 116.512 364.488 16 240.5 16 C 116.512 16 16 116.512 16 240.5 C 16 364.488 116.512 465 240.5 465 Z M 240.5 481 C 373.324 481 481 373.324 481 240.5 C 481 107.676 373.324 0 240.5 0 C 107.676 0 0 107.676 0 240.5 C 0 373.324 107.676 481 240.5 481 Z" stroke-linecap="round" /></g></svg>